<?xml version="1.0" encoding="UTF-8"?>
<svg id="Ebene_2" data-name="Ebene 2" xmlns="http://www.w3.org/2000/svg" xmlns:xlink="http://www.w3.org/1999/xlink" viewBox="0 0 735.88 225.02">
  <defs>
    <style>
      .cls-1 {
        fill: url(#Unbenannter_Verlauf_214-2);
      }

      .cls-2 {
        fill: #26261f;
      }

      .cls-3 {
        fill: url(#Unbenannter_Verlauf_213);
      }

      .cls-4 {
        fill: url(#Unbenannter_Verlauf_214);
      }

      .cls-5 {
        fill: url(#Unbenannter_Verlauf_215);
      }

      .cls-6 {
        fill: url(#Unbenannter_Verlauf_15);
      }
    </style>
    <linearGradient id="Unbenannter_Verlauf_15" data-name="Unbenannter Verlauf 15" x1="213.92" y1="118.1" x2="735.88" y2="118.1" gradientUnits="userSpaceOnUse">
      <stop offset="0" stop-color="#79c5b8"/>
      <stop offset=".3" stop-color="#65c2c6"/>
      <stop offset=".72" stop-color="#51bfd6"/>
      <stop offset="1" stop-color="#4abfdc"/>
    </linearGradient>
    <linearGradient id="Unbenannter_Verlauf_214" data-name="Unbenannter Verlauf 214" x1="99.67" y1="8.3" x2="98.25" y2="224.13" gradientUnits="userSpaceOnUse">
      <stop offset="0" stop-color="#48bfdc"/>
      <stop offset=".5" stop-color="#4c7ea7"/>
      <stop offset=".87" stop-color="#4f5384"/>
    </linearGradient>
    <linearGradient id="Unbenannter_Verlauf_215" data-name="Unbenannter Verlauf 215" x1="189.15" y1="196.67" x2="80.99" y2="192.98" gradientUnits="userSpaceOnUse">
      <stop offset="0" stop-color="#48bfdc"/>
      <stop offset=".41" stop-color="#4c7ea7"/>
      <stop offset=".71" stop-color="#4f5384"/>
    </linearGradient>
    <linearGradient id="Unbenannter_Verlauf_214-2" data-name="Unbenannter Verlauf 214" x1="184.54" y1="32.37" x2="81.12" y2="31.45" xlink:href="#Unbenannter_Verlauf_214"/>
    <linearGradient id="Unbenannter_Verlauf_213" data-name="Unbenannter Verlauf 213" x1="191.28" y1="114.63" x2="67.51" y2="113.7" gradientUnits="userSpaceOnUse">
      <stop offset="0" stop-color="#48bfdc"/>
      <stop offset=".41" stop-color="#4c7ea7"/>
      <stop offset=".71" stop-color="#4f5384"/>
    </linearGradient>
  </defs>
  <g id="Ebene_1-2" data-name="Ebene 1">
    <g>
      <g>
        <g>
          <path class="cls-6" d="M286.64,95.6c6.21,3.65,11.1,8.77,14.66,15.36,3.57,6.59,5.35,14.18,5.35,22.79s-1.92,15.94-5.75,22.4c-3.83,6.46-9.12,11.44-15.85,14.97-6.74,3.52-14.27,5.28-22.59,5.28-5.95,0-11.63-1.27-17.04-3.81-5.42-2.54-9.78-5.97-13.08-10.27v51.06h-18.43V92.08h16.05l1.58,13.69c4.23-4.69,9.28-8.48,15.16-11.35,5.88-2.87,12.25-4.3,19.12-4.3,7.66,0,14.6,1.83,20.81,5.48Zm-13.38,62.5c4.42-2.41,7.96-5.74,10.6-9.98,2.64-4.24,3.96-8.96,3.96-14.18s-1.22-10.17-3.67-14.48c-2.45-4.3-5.78-7.69-10.01-10.17-4.23-2.48-8.92-3.72-14.07-3.72-7,0-12.98,1.93-17.93,5.77-4.95,3.85-8.22,9.03-9.81,15.55v13.5c1.06,6.26,4.06,11.38,9.02,15.36,4.95,3.98,10.8,5.97,17.54,5.97,5.15,0,9.94-1.2,14.37-3.62Z"/>
          <path class="cls-6" d="M343.22,100.88c3.9-3.39,8.03-6,12.39-7.83,4.36-1.82,8.19-2.8,11.49-2.93l-.79,18.19c-5.95-.26-11.33,.91-16.15,3.52-4.82,2.61-8.59,6.23-11.3,10.86-2.71,4.63-4.06,9.55-4.06,14.77v36.97h-18.43V93.45h16.45l1.39,19.17c2.11-4.43,5.12-8.34,9.02-11.74Z"/>
          <path class="cls-6" d="M377.8,57.06c2.25-1.96,4.82-2.93,7.73-2.93s5.45,.98,7.63,2.93c2.18,1.96,3.27,4.37,3.27,7.24s-1.09,5.28-3.27,7.24-4.73,2.93-7.63,2.93-5.48-.98-7.73-2.93c-2.25-1.96-3.37-4.37-3.37-7.24s1.12-5.28,3.37-7.24Zm16.45,36.39v80.99h-18.43V93.45h18.43Z"/>
          <path class="cls-6" d="M481.24,97.07c5.02,4.5,7.59,10.34,7.73,17.51v59.86h-18.63v-53.6c-.27-4.56-1.65-8.15-4.16-10.76-2.51-2.61-6.28-3.98-11.29-4.11-7.27,0-13.28,2.87-18.03,8.61-4.76,5.74-7.13,13.04-7.13,21.91v37.95h-18.43V93.45h16.65l1.19,15.65c2.9-5.87,7.26-10.47,13.08-13.79,5.81-3.33,12.49-4.99,20.02-4.99s14,2.25,19.02,6.75Z"/>
          <path class="cls-6" d="M532.37,57.84v35.8h22.39v14.48h-22.39v66.32h-18.63V108.12h-15.06v-14.48h15.06V57.84h18.63Z"/>
          <path class="cls-6" d="M564.07,57.06c2.25-1.96,4.82-2.93,7.73-2.93s5.45,.98,7.63,2.93c2.18,1.96,3.27,4.37,3.27,7.24s-1.09,5.28-3.27,7.24-4.73,2.93-7.63,2.93-5.48-.98-7.73-2.93c-2.25-1.96-3.37-4.37-3.37-7.24s1.12-5.28,3.37-7.24Zm16.45,36.39v80.99h-18.43V93.45h18.43Z"/>
          <path class="cls-6" d="M604.3,109.69h-14.07v-16.43h14.07V59.21c0-11.74,2.71-20.74,8.12-27,5.42-6.26,13.34-9.39,23.78-9.39,2.91,0,6.01,.42,9.31,1.27,3.3,.85,6.21,2.05,8.72,3.62l-7.93,13.3c-1.98-2.08-4.76-3.13-8.32-3.13-5.02,0-8.82,1.7-11.39,5.09-2.58,3.39-3.86,8.87-3.86,16.43v33.84h26.16v16.43h-26.16v64.75h-18.43V109.69Z"/>
          <path class="cls-6" d="M735.88,93.45l-52.91,119.92h-18.23l18.83-41.67-38.05-78.25h20.81l26.55,57.71,25.96-57.71h17.04Z"/>
        </g>
        <g>
          <path class="cls-2" d="M286.64,95.6c6.21,3.65,11.1,8.77,14.66,15.36,3.57,6.59,5.35,14.18,5.35,22.79s-1.92,15.94-5.75,22.4c-3.83,6.46-9.12,11.44-15.85,14.97-6.74,3.52-14.27,5.28-22.59,5.28-5.95,0-11.63-1.27-17.04-3.81-5.42-2.54-9.78-5.97-13.08-10.27v51.06h-18.43V92.08h16.05l1.58,13.69c4.23-4.69,9.28-8.48,15.16-11.35,5.88-2.87,12.25-4.3,19.12-4.3,7.66,0,14.6,1.83,20.81,5.48Zm-13.38,62.5c4.42-2.41,7.96-5.74,10.6-9.98,2.64-4.24,3.96-8.96,3.96-14.18s-1.22-10.17-3.67-14.48c-2.45-4.3-5.78-7.69-10.01-10.17-4.23-2.48-8.92-3.72-14.07-3.72-7,0-12.98,1.93-17.93,5.77-4.95,3.85-8.22,9.03-9.81,15.55v13.5c1.06,6.26,4.06,11.38,9.02,15.36,4.95,3.98,10.8,5.97,17.54,5.97,5.15,0,9.94-1.2,14.37-3.62Z"/>
          <path class="cls-2" d="M343.22,100.88c3.9-3.39,8.03-6,12.39-7.83,4.36-1.82,8.19-2.8,11.49-2.93l-.79,18.19c-5.95-.26-11.33,.91-16.15,3.52-4.82,2.61-8.59,6.23-11.3,10.86-2.71,4.63-4.06,9.55-4.06,14.77v36.97h-18.43V93.45h16.45l1.39,19.17c2.11-4.43,5.12-8.34,9.02-11.74Z"/>
          <path class="cls-2" d="M377.8,57.06c2.25-1.96,4.82-2.93,7.73-2.93s5.45,.98,7.63,2.93c2.18,1.96,3.27,4.37,3.27,7.24s-1.09,5.28-3.27,7.24-4.73,2.93-7.63,2.93-5.48-.98-7.73-2.93c-2.25-1.96-3.37-4.37-3.37-7.24s1.12-5.28,3.37-7.24Zm16.45,36.39v80.99h-18.43V93.45h18.43Z"/>
          <path class="cls-2" d="M481.24,97.07c5.02,4.5,7.59,10.34,7.73,17.51v59.86h-18.63v-53.6c-.27-4.56-1.65-8.15-4.16-10.76-2.51-2.61-6.28-3.98-11.29-4.11-7.27,0-13.28,2.87-18.03,8.61-4.76,5.74-7.13,13.04-7.13,21.91v37.95h-18.43V93.45h16.65l1.19,15.65c2.9-5.87,7.26-10.47,13.08-13.79,5.81-3.33,12.49-4.99,20.02-4.99s14,2.25,19.02,6.75Z"/>
          <path class="cls-2" d="M532.37,57.84v35.8h22.39v14.48h-22.39v66.32h-18.63V108.12h-15.06v-14.48h15.06V57.84h18.63Z"/>
          <path class="cls-2" d="M564.07,57.06c2.25-1.96,4.82-2.93,7.73-2.93s5.45,.98,7.63,2.93c2.18,1.96,3.27,4.37,3.27,7.24s-1.09,5.28-3.27,7.24-4.73,2.93-7.63,2.93-5.48-.98-7.73-2.93c-2.25-1.96-3.37-4.37-3.37-7.24s1.12-5.28,3.37-7.24Zm16.45,36.39v80.99h-18.43V93.45h18.43Z"/>
          <path class="cls-2" d="M604.3,109.69h-14.07v-16.43h14.07V59.21c0-11.74,2.71-20.74,8.12-27,5.42-6.26,13.34-9.39,23.78-9.39,2.91,0,6.01,.42,9.31,1.27,3.3,.85,6.21,2.05,8.72,3.62l-7.93,13.3c-1.98-2.08-4.76-3.13-8.32-3.13-5.02,0-8.82,1.7-11.39,5.09-2.58,3.39-3.86,8.87-3.86,16.43v33.84h26.16v16.43h-26.16v64.75h-18.43V109.69Z"/>
          <path class="cls-2" d="M735.88,93.45l-52.91,119.92h-18.23l18.83-41.67-38.05-78.25h20.81l26.55,57.71,25.96-57.71h17.04Z"/>
        </g>
      </g>
      <g>
        <path class="cls-4" d="M197.86,164.77v-42.57c0-36.28,.85-33.61-35.42-33.61H90.89c-7.98,0-14.46-6.47-14.46-14.46v-.41c0-1.48,.42-2.82,1.06-4,1.93-3.58,5.86-5.63,9.93-5.63h84.92c12.61,0,22.12-11.35,20.02-23.79C188.01,14.58,178.47,0,165.68,0H58.07C36.52,0,19.04,17.47,19.04,39.02L0,64.1H19.04v22.32c0,29.65,24.03,53.68,53.68,53.68h56.55c8.43,0,15.26,6.83,15.26,15.26l.51-3.87c0,7.34-5.95,13.28-13.28,13.28H39.88c-10.23,0-18.53-15.04-18.53-4.81v22.99c0,23.23,18.83,42.06,42.06,42.06h88.85c26.45,0,45.59-21.38,45.59-47.83"/>
        <path class="cls-5" d="M126.54,164.77h71.32v16.18c0,24.34-19.73,44.06-44.06,44.06H76.43v-33.47c0-27.68,22.44-26.78,50.12-26.78Z"/>
        <path class="cls-1" d="M126.54,64.1h51.31c11.05,0,20.01-8.96,20.01-20.01V26.15c0-14.44-11.71-26.15-26.15-26.15H76.43V33.47c0,27.68,22.44,30.63,50.12,30.63Z"/>
        <path class="cls-3" d="M143.28,140.1h37.85c9.24,0,16.74-7.49,16.74-16.74v-18.04c0-9.24-7.49-16.74-16.74-16.74H93.16c-9.24,0-16.74,7.49-16.74,16.74h0c0,36.92,29.93,34.78,66.85,34.78Z"/>
      </g>
    </g>
  </g>
</svg>