<?xml version="1.0" encoding="UTF-8"?>
<svg id="Ebene_2" data-name="Ebene 2" xmlns="http://www.w3.org/2000/svg" xmlns:xlink="http://www.w3.org/1999/xlink" viewBox="0 0 197.86 225.02">
  <defs>
    <style>
      .cls-1 {
        fill: url(#Unbenannter_Verlauf_214-2);
      }

      .cls-2 {
        fill: url(#Unbenannter_Verlauf_213);
      }

      .cls-3 {
        fill: url(#Unbenannter_Verlauf_214);
      }

      .cls-4 {
        fill: url(#Unbenannter_Verlauf_215);
      }
    </style>
    <linearGradient id="Unbenannter_Verlauf_214" data-name="Unbenannter Verlauf 214" x1="99.67" y1="8.3" x2="98.25" y2="224.13" gradientUnits="userSpaceOnUse">
      <stop offset="0" stop-color="#48bfdc"/>
      <stop offset=".5" stop-color="#4c7ea7"/>
      <stop offset=".87" stop-color="#4f5384"/>
    </linearGradient>
    <linearGradient id="Unbenannter_Verlauf_215" data-name="Unbenannter Verlauf 215" x1="189.15" y1="196.67" x2="80.99" y2="192.98" gradientUnits="userSpaceOnUse">
      <stop offset="0" stop-color="#48bfdc"/>
      <stop offset=".41" stop-color="#4c7ea7"/>
      <stop offset=".71" stop-color="#4f5384"/>
    </linearGradient>
    <linearGradient id="Unbenannter_Verlauf_214-2" data-name="Unbenannter Verlauf 214" x1="184.54" y1="32.37" x2="81.12" y2="31.45" xlink:href="#Unbenannter_Verlauf_214"/>
    <linearGradient id="Unbenannter_Verlauf_213" data-name="Unbenannter Verlauf 213" x1="191.28" y1="114.63" x2="67.51" y2="113.7" gradientUnits="userSpaceOnUse">
      <stop offset="0" stop-color="#48bfdc"/>
      <stop offset=".41" stop-color="#4c7ea7"/>
      <stop offset=".71" stop-color="#4f5384"/>
    </linearGradient>
  </defs>
  <g id="Ebene_1-2" data-name="Ebene 1">
    <g>
      <path class="cls-3" d="M197.86,164.77v-42.57c0-36.28,.85-33.61-35.42-33.61H90.89c-7.98,0-14.46-6.47-14.46-14.46v-.41c0-1.48,.42-2.82,1.06-4,1.93-3.58,5.86-5.63,9.93-5.63h84.92c12.61,0,22.12-11.35,20.02-23.79C188.01,14.58,178.47,0,165.68,0H58.07C36.52,0,19.04,17.47,19.04,39.02L0,64.1H19.04v22.32c0,29.65,24.03,53.68,53.68,53.68h56.55c8.43,0,15.26,6.83,15.26,15.26l.51-3.87c0,7.34-5.95,13.28-13.28,13.28H39.88c-10.23,0-18.53-15.04-18.53-4.81v22.99c0,23.23,18.83,42.06,42.06,42.06h88.85c26.45,0,45.59-21.38,45.59-47.83"/>
      <path class="cls-4" d="M126.54,164.77h71.32v16.18c0,24.34-19.73,44.06-44.06,44.06H76.43v-33.47c0-27.68,22.44-26.78,50.12-26.78Z"/>
      <path class="cls-1" d="M126.54,64.1h51.31c11.05,0,20.01-8.96,20.01-20.01V26.15c0-14.44-11.71-26.15-26.15-26.15H76.43V33.47c0,27.68,22.44,30.63,50.12,30.63Z"/>
      <path class="cls-2" d="M143.28,140.1h37.85c9.24,0,16.74-7.49,16.74-16.74v-18.04c0-9.24-7.49-16.74-16.74-16.74H93.16c-9.24,0-16.74,7.49-16.74,16.74h0c0,36.92,29.93,34.78,66.85,34.78Z"/>
    </g>
  </g>
</svg>